<?xml version="1.0" standalone="no"?>
<!DOCTYPE svg PUBLIC "-//W3C//DTD SVG 20010904//EN"
 "http://www.w3.org/TR/2001/REC-SVG-20010904/DTD/svg10.dtd">
<svg version="1.0" xmlns="http://www.w3.org/2000/svg"
 width="99.000000pt" height="104.000000pt" viewBox="0 0 99.000000 104.000000"
 preserveAspectRatio="xMidYMid meet">

<g transform="translate(0.000000,104.000000) scale(0.100000,-0.100000)"
fill="#000000" stroke="none">
<path d="M132 998 c-9 -9 -12 -78 -12 -249 0 -257 2 -269 55 -269 45 0 55 32
55 180 0 127 2 138 24 171 52 76 165 92 228 33 49 -47 58 -79 58 -222 0 -112
2 -131 18 -145 25 -22 55 -21 76 2 16 17 17 38 14 173 -3 134 -6 158 -25 194
-29 54 -101 117 -151 132 -59 18 -151 14 -199 -7 -41 -19 -42 -19 -59 0 -19
21 -64 25 -82 7z"/>
<path d="M380 131 c0 -72 6 -91 31 -91 23 0 25 15 4 24 -20 7 -20 66 0 66 8 0
15 4 15 9 0 5 -7 11 -15 15 -8 3 -15 12 -15 21 0 8 -4 15 -10 15 -6 0 -10 -26
-10 -59z"/>
<path d="M550 115 c0 -80 17 -104 22 -32 2 34 7 42 23 42 16 0 21 -8 23 -42 4
-56 22 -56 22 0 0 48 -13 67 -47 67 -16 0 -23 6 -23 20 0 11 -4 20 -10 20 -6
0 -10 -32 -10 -75z"/>
<path d="M120 95 c0 -30 5 -55 10 -55 6 0 10 18 10 40 0 70 62 67 68 -4 4 -48
22 -46 22 2 0 49 -24 72 -73 72 l-37 0 0 -55z"/>
<path d="M266 134 c-21 -21 -20 -57 2 -77 24 -22 55 -21 75 1 34 37 11 92 -38
92 -13 0 -31 -7 -39 -16z m65 -20 c9 -11 10 -20 2 -32 -13 -22 -43 -22 -56 -1
-24 38 25 68 54 33z"/>
<path d="M462 138 c-30 -30 -3 -98 38 -98 32 0 31 17 -1 24 -26 5 -30 10 -27
33 2 22 9 29 31 31 15 2 27 8 27 13 0 13 -54 11 -68 -3z"/>
</g>
</svg>
